<?xml version="1.0" encoding="utf-8"?>
<!-- Generator: Adobe Illustrator 21.1.0, SVG Export Plug-In . SVG Version: 6.00 Build 0)  -->
<svg version="1.1" id="Layer_1" xmlns="http://www.w3.org/2000/svg" xmlns:xlink="http://www.w3.org/1999/xlink" x="0px" y="0px"
	 viewBox="0 0 100 100" style="enable-background:new 0 0 100 100;" xml:space="preserve">
<style type="text/css">
	.st0{fill:#FFFFFF;}
</style>
<g>
	<path class="st0" d="M76.6,18.8c1.2,0,2.3,0.4,3.2,1.3s1.3,1.9,1.3,3.2v54c0,1.2-0.4,2.3-1.3,3.2s-1.9,1.3-3.2,1.3h-54
		c-1.2,0-2.3-0.4-3.2-1.3s-1.3-1.9-1.3-3.2v-54c0-1.2,0.4-2.3,1.3-3.2s1.9-1.3,3.2-1.3H76.6z M32.5,38.6c1.5,0,2.8-0.5,3.9-1.6
		s1.6-2.3,1.6-3.8s-0.5-2.7-1.6-3.8s-2.4-1.6-3.9-1.6s-2.8,0.5-3.8,1.6s-1.5,2.3-1.5,3.8s0.5,2.7,1.5,3.8S31,38.6,32.5,38.6z
		 M37.1,72.8h0.1V42.7h-9.4v30.1H37.1z M72.1,72.8V56.3c0-4.7-0.7-8.1-2-10.3C68.4,43.3,65.3,42,61,42c-2.2,0-4.1,0.5-5.8,1.5
		c-1.4,0.8-2.4,1.9-3.1,3.2H52v-4.1h-9v30.1h9.3V57.8c0-2.3,0.3-4.1,1-5.3c0.9-1.6,2.5-2.4,4.6-2.4s3.6,0.9,4.2,2.7
		c0.5,1.1,0.7,2.9,0.7,5.3v14.6H72.1z"/>
</g>
</svg>
